<?xml version="1.0" encoding="iso-8859-1"?>
<!-- Generator: Adobe Illustrator 16.0.0, SVG Export Plug-In . SVG Version: 6.00 Build 0)  -->
<!DOCTYPE svg PUBLIC "-//W3C//DTD SVG 1.1//EN" "http://www.w3.org/Graphics/SVG/1.1/DTD/svg11.dtd">
<svg xmlns="http://www.w3.org/2000/svg" xmlns:xlink="http://www.w3.org/1999/xlink" version="1.1" id="Capa_1" x="0px" y="0px" width="512px" height="512px" viewBox="0 0 494.293 494.293" style="enable-background:new 0 0 494.293 494.293;" xml:space="preserve">
<g>
	<g>
		<g id="Icons_19_">
			<g>
				<path d="M304.504,418.334H189.783c-9.125,0-16.508,7.395-16.508,16.512s7.383,16.513,16.508,16.513h22.41v7.995      c0,19.3,15.645,34.939,34.943,34.939c19.296,0,34.941-15.641,34.941-34.939v-7.995h22.427c9.123,0,16.514-7.396,16.514-16.513      C321.018,425.727,313.627,418.334,304.504,418.334z" fill="#FFFFFF"/>
				<path d="M304.504,369.834H189.783c-9.125,0-16.508,7.395-16.508,16.512s7.383,16.508,16.508,16.508h114.721      c9.123,0,16.514-7.391,16.514-16.508S313.627,369.834,304.504,369.834z" fill="#FFFFFF"/>
				<path d="M247.123,0C158.975,0,87.498,71.476,87.498,159.638c0,61.48,34.807,114.76,85.742,141.428v35.319      c0,9.894,8.014,17.906,17.9,17.906h111.993c9.885,0,17.896-8.014,17.896-17.906V301.06      c50.951-26.668,85.766-79.941,85.766-141.421C406.795,71.475,335.299,0,247.123,0z M247.136,69.377      c-49.771,0-90.26,40.495-90.26,90.26c0,9.118-7.385,16.511-16.508,16.511c-9.133,0-16.516-7.394-16.516-16.511      c0-67.976,55.303-123.279,123.283-123.279c9.125,0,16.506,7.39,16.506,16.511C263.645,61.987,256.262,69.377,247.136,69.377z" fill="#FFFFFF"/>
			</g>
		</g>
	</g>
</g>
<g>
</g>
<g>
</g>
<g>
</g>
<g>
</g>
<g>
</g>
<g>
</g>
<g>
</g>
<g>
</g>
<g>
</g>
<g>
</g>
<g>
</g>
<g>
</g>
<g>
</g>
<g>
</g>
<g>
</g>
</svg>
